# Blender v2.80 (sub 75) OBJ File: 'Rock4.blend'
# www.blender.org
mtllib Rock4.mtl
o Rock_Cube.006
v -2.235329 0.157325 1.050236
v -1.673614 0.972318 0.189393
v -1.993407 0.075260 -0.952463
v 1.050787 0.106679 1.050236
v 1.050787 0.178956 -0.949764
v 0.691530 0.983386 -0.730669
v -0.435547 0.034187 -1.550271
v -0.678867 1.294169 -1.096946
v -0.435547 -0.021995 1.650743
v -0.435547 0.881078 1.297843
v 0.695404 0.960195 0.839116
vt 0.656770 0.431938
vt 0.739409 0.569573
vt 0.552446 0.612238
vt 0.985593 0.285323
vt 0.915344 0.274391
vt 0.985593 0.012990
vt 0.550117 0.331090
vt 0.564862 0.122095
vt 0.785874 0.406340
vt 0.146143 0.482195
vt 0.014407 0.280031
vt 0.521303 0.212091
vt 0.014407 0.791122
vt 0.212009 0.859134
vt 0.071373 0.889507
vt 0.740887 0.780836
vt 0.550346 0.844138
vt 0.811037 0.057338
vt 0.169591 0.784154
vt 0.767201 0.927876
vt 0.646628 0.987010
vt 0.468404 0.482211
vt 0.078943 0.508191
vt 0.212009 0.560838
vt 0.391204 0.012990
vt 0.074472 0.055541
vn -0.8736 0.4703 -0.1248
vn -0.2647 0.3510 0.8982
vn 0.2176 0.9759 0.0139
vn -0.0331 -0.9993 -0.0175
vn 0.3260 0.3441 0.8805
vn -0.3400 0.2595 -0.9039
vn -0.3823 0.7825 0.4914
vn -0.6589 0.6701 -0.3419
vn 0.3302 0.3539 0.8751
vn 0.3166 0.3761 -0.8708
vn -0.1082 -0.9937 0.0276
vn -0.0871 0.9802 0.1779
vn 0.9183 0.3958 0.0096
vn 0.0916 -0.9955 -0.0246
vn 0.0000 0.9854 0.1700
usemtl Material.001
s off
f 1/1/1 2/2/1 3/3/1
f 9/4/2 10/5/2 1/6/2
f 6/7/3 8/8/3 11/9/3
f 3/10/4 7/11/4 9/12/4
f 4/13/5 10/14/5 9/15/5
f 3/3/6 8/16/6 7/17/6
f 1/6/7 10/5/7 2/18/7
f 8/16/8 3/3/8 2/2/8
f 10/14/9 4/13/9 11/19/9
f 6/20/10 5/21/10 7/17/10 8/16/10
f 9/12/11 1/22/11 3/10/11
f 2/18/12 10/5/12 8/8/12
f 5/23/13 6/24/13 11/19/13 4/13/13
f 4/25/14 9/12/14 7/11/14 5/26/14
f 8/8/15 10/5/15 11/9/15
