# Blender v2.80 (sub 75) OBJ File: 'Rock3.blend'
# www.blender.org
mtllib Rock3.mtl
o Rock_Cube.005
v -0.912823 -0.003692 2.921456
v -0.536233 5.965732 1.195144
v -1.176178 -0.003692 -2.244929
v -0.745203 5.919655 -1.327351
v 2.722835 -0.003692 3.357876
v 1.596288 6.435949 0.909763
v 2.722835 -0.003692 -3.462118
v 1.805258 6.482026 -0.986040
v -1.277181 3.674036 1.755088
v -1.277181 3.674036 -1.859330
v 2.337236 5.635096 -1.859330
v 2.337236 4.891146 2.535857
v 3.747848 -0.003692 -0.330252
v 3.163592 4.667468 -0.107109
vt 0.086670 0.673648
vt 0.120120 0.509082
vt 0.280508 0.513136
vt 0.130037 0.075020
vt 0.192277 0.013602
vt 0.232872 0.167838
vt 0.987481 0.851404
vt 0.930728 0.986398
vt 0.800037 0.957708
vt 0.987481 0.510229
vt 0.757801 0.531425
vt 0.012519 0.438721
vt 0.197258 0.481879
vt 0.720683 0.531311
vt 0.720683 0.782872
vt 0.463694 0.510229
vt 0.745721 0.798105
vt 0.489758 0.914131
vt 0.687122 0.941960
vt 0.530518 0.986102
vt 0.315802 0.671533
vt 0.312858 0.023824
vt 0.402916 0.150998
vt 0.463694 0.263862
vt 0.540541 0.013602
vt 0.769456 0.056397
vt 0.769456 0.412927
vt 0.518517 0.483026
vt 0.800823 0.039341
vt 0.919503 0.013602
vt 0.955081 0.190969
vt 0.794494 0.190969
vt 0.340628 0.920065
vt 0.012519 0.920065
vt 0.438656 0.481879
vn -0.9437 0.3228 0.0723
vn 0.8136 0.5778 -0.0647
vn -0.0624 0.7092 0.7022
vn -0.1177 0.1554 0.9808
vn 0.9420 0.1326 -0.3083
vn -0.2967 0.0915 -0.9506
vn -0.2876 0.2635 0.9208
vn -0.3010 0.3171 0.8994
vn -0.1420 0.2616 -0.9547
vn -0.1181 0.4108 -0.9040
vn -0.9731 0.2305 0.0000
vn 0.9240 0.1617 -0.3465
vn 0.7872 0.5846 0.1966
vn 0.7726 0.6270 0.1004
vn 0.0000 -1.0000 0.0000
vn -0.2153 0.9765 -0.0000
vn -0.9978 -0.0599 0.0299
vn 0.9546 0.1140 0.2751
usemtl Material.001
s off
f 9/1/1 2/2/1 4/3/1
f 11/4/2 8/5/2 14/6/2
f 12/7/3 6/8/3 2/9/3
f 5/10/4 12/7/4 1/11/4
f 7/12/5 14/6/5 13/13/5
f 3/14/6 10/15/6 7/16/6
f 1/11/7 12/7/7 9/17/7
f 2/9/8 9/17/8 12/7/8
f 7/16/9 10/15/9 11/18/9
f 11/18/10 10/15/10 4/19/10 8/20/10
f 4/3/11 10/21/11 9/1/11
f 11/4/12 14/6/12 7/12/12
f 14/6/13 6/22/13 12/23/13
f 6/22/14 14/6/14 8/5/14
f 13/24/15 5/25/15 1/26/15 3/27/15 7/28/15
f 6/29/16 8/30/16 4/31/16 2/32/16
f 3/33/17 1/34/17 9/1/17 10/21/17
f 5/35/18 13/13/18 14/6/18 12/23/18
