# Blender v2.80 (sub 75) OBJ File: 'Tree9.blend'
# www.blender.org
mtllib Tree9.mtl
o Tree_Cylinder
v -0.000000 0.008295 -0.659909
v -0.013904 5.993879 -1.039784
v 0.515938 0.008295 -0.411447
v 0.406683 5.993879 -0.837240
v 0.643364 0.008295 0.146844
v 0.510560 5.993879 -0.382128
v 0.286324 0.008295 0.594558
v 0.219504 5.993879 -0.017156
v -0.286324 0.008295 0.594558
v -0.247312 5.993879 -0.017156
v -0.643364 0.008295 0.146844
v -0.538367 5.993879 -0.382128
v -0.515938 0.008295 -0.411447
v -0.434491 5.993879 -0.837240
v 0.987233 9.209412 -1.897967
v 0.613525 9.209412 -2.077935
v 1.079532 9.209412 -1.493582
v 0.820918 9.209412 -1.169289
v 0.406133 9.209412 -1.169289
v 0.147519 9.209412 -1.493582
v 0.239817 9.209412 -1.897967
v 0.212290 10.650506 -3.333060
v 0.109152 10.650506 -3.382728
v 0.237763 10.650506 -3.221455
v 0.166389 10.650506 -3.131955
v 0.051914 10.650506 -3.131955
v -0.019460 10.650506 -3.221455
v 0.006013 10.650506 -3.333060
v -0.228814 3.779467 2.025992
v -0.090996 3.779467 1.422170
v 0.467020 3.779467 1.153444
v 1.025035 3.779467 1.422170
v 1.162853 3.779467 2.025991
v 0.776695 3.779467 2.510219
v 0.157344 3.779467 2.510219
v -1.744997 6.970368 4.710398
v -1.817567 6.970368 5.174540
v -1.336869 6.970368 4.477748
v -0.900513 6.970368 4.651780
v -0.764513 6.970368 5.101444
v -1.031280 6.970368 5.488134
v -1.499933 6.970368 5.520665
v -2.115549 8.851999 5.827692
v -2.134862 8.851999 5.951215
v -2.006933 8.851999 5.765776
v -1.890805 8.851999 5.812091
v -1.854611 8.851999 5.931762
v -1.925606 8.851999 6.034673
v -2.050330 8.851999 6.043330
v -0.210869 7.529235 -0.912826
v -0.013913 7.142412 -0.428678
v 0.472051 7.344149 -0.500962
v 0.543430 7.725790 -0.637704
v -0.143700 7.844138 -1.021673
v 0.192965 8.160437 -0.793439
v -0.504612 8.596308 1.374128
v -0.345251 8.742085 1.592919
v -0.477756 8.620874 1.068853
v -0.284906 8.797287 0.906974
v -0.071282 8.992702 1.010389
v 0.002253 9.059970 1.301224
v -0.119674 8.948435 1.560474
v -0.769637 10.120039 1.698251
v -0.726977 10.159062 1.756819
v -0.762448 10.126616 1.616533
v -0.710824 10.173839 1.573200
v -0.653639 10.226150 1.600882
v -0.633955 10.244156 1.678735
v -0.666593 10.214299 1.748134
v 0.164616 4.287836 1.598451
v 0.703258 4.258807 1.836618
v -0.645344 6.357051 4.083811
v -0.435136 5.851800 3.615919
v -0.491561 5.677765 4.404995
v -1.003928 6.099749 3.641963
v -0.170485 5.664698 3.967445
v -0.411612 6.194695 4.427757
v 0.742886 6.997553 3.824746
v 0.854407 6.729505 3.576517
v 0.994811 6.630243 3.763011
v 0.866887 6.911419 4.007217
v 0.824472 6.637175 3.995142
v 0.552649 6.861048 3.590334
v 1.422216 8.210119 3.658611
v 1.451575 8.139554 3.593263
v 1.488537 8.113422 3.642358
v 1.454860 8.187445 3.706647
v 1.443694 8.115248 3.703469
v 1.372135 8.174183 3.596900
v 0.068651 1.893881 1.393132
v -0.030804 1.893881 1.828874
v 0.247863 1.893881 2.178311
v 0.694811 1.893881 2.178311
v 0.874023 1.893881 1.393132
v 0.471337 1.893881 1.199209
v 0.973478 1.893881 1.828874
vt 0.352615 0.563995
vt 0.060170 0.556752
vt 0.077326 0.504748
vt 0.324740 0.531368
vt 0.360620 0.606155
vt 0.070790 0.612688
vt 0.455136 0.000305
vt 0.489647 0.042823
vt 0.041943 0.052695
vt 0.068371 0.018539
vt 0.183236 0.025688
vt 0.339010 0.389905
vt 0.306966 0.418449
vt 0.000305 0.418724
vt 0.042819 0.380853
vt 0.385292 0.415669
vt 0.398074 0.374635
vt 0.714163 0.385830
vt 0.702805 0.422291
vt 0.448339 0.279482
vt 0.431641 0.331053
vt 0.164068 0.276481
vt 0.208293 0.240378
vt 0.360620 0.352829
vt 0.071490 0.331663
vt 0.572413 0.871945
vt 0.595254 0.824516
vt 0.646576 0.812801
vt 0.687734 0.845623
vt 0.687734 0.898266
vt 0.646576 0.931088
vt 0.595254 0.919374
vt 0.971451 0.205115
vt 0.933379 0.207236
vt 0.960943 0.021073
vt 0.971451 0.020488
vt 0.367664 0.538917
vt 0.361230 0.496391
vt 0.472992 0.495929
vt 0.521118 0.534613
vt 0.398809 0.331663
vt 0.714816 0.347648
vt 0.369367 0.454190
vt 0.688975 0.456934
vt 0.542143 0.457180
vt 0.503340 0.456733
vt 0.383239 0.577315
vt 0.553594 0.534098
vt 0.687856 0.532449
vt 0.701861 0.567548
vt 0.397819 0.617876
vt 0.714816 0.603589
vt 0.287569 0.615640
vt 0.297828 0.613298
vt 0.306056 0.619860
vt 0.306056 0.630383
vt 0.297828 0.636944
vt 0.287569 0.634603
vt 0.283003 0.625122
vt 0.901302 0.227851
vt 0.867026 0.244557
vt 0.942630 0.031374
vt 0.952090 0.026763
vt 0.829628 0.237119
vt 0.806591 0.206734
vt 0.925950 0.020936
vt 0.932308 0.029321
vt 0.802542 0.168820
vt 0.792702 0.131981
vt 0.922117 0.000305
vt 0.924833 0.010472
vt 0.288030 0.456959
vt 0.050420 0.457690
vt 0.553124 0.702582
vt 0.550610 0.745694
vt 0.364343 0.736026
vt 0.365012 0.724552
vt 0.450087 0.190333
vt 0.489647 0.231280
vt 0.214462 0.196859
vt 0.178836 0.161913
vt 0.448740 0.082424
vt 0.011533 0.083358
vt 0.296542 0.499019
vt 0.431245 0.136605
vt 0.016095 0.165255
vt 0.000305 0.125059
vt 0.282393 0.620464
vt 0.282393 0.631958
vt 0.273407 0.639123
vt 0.262202 0.636566
vt 0.257215 0.626211
vt 0.262202 0.615856
vt 0.273407 0.613298
vt 0.560907 0.787635
vt 0.571803 0.829424
vt 0.369983 0.758309
vt 0.367083 0.747187
vt 0.566143 0.872237
vt 0.538914 0.905758
vt 0.361230 0.778623
vt 0.368477 0.769703
vt 0.565521 0.661213
vt 0.368311 0.713543
vt 0.571803 0.618486
vt 0.369983 0.702173
vt 0.700371 0.729593
vt 0.707383 0.756971
vt 0.574389 0.725630
vt 0.572512 0.718301
vt 0.579842 0.495188
vt 0.682294 0.494539
vt 0.309949 0.628614
vt 0.306666 0.621798
vt 0.309949 0.614982
vt 0.317324 0.613298
vt 0.323239 0.618015
vt 0.323239 0.625581
vt 0.317325 0.630298
vt 0.712107 0.784836
vt 0.705007 0.812191
vt 0.573753 0.740412
vt 0.575654 0.733089
vt 0.712107 0.646137
vt 0.706703 0.673878
vt 0.574207 0.703387
vt 0.575654 0.695961
vt 0.700000 0.701333
vt 0.572413 0.710737
vt 0.706261 0.618486
vt 0.574089 0.688559
vt 0.893648 0.507950
vt 0.719837 0.500332
vt 0.727023 0.443852
vt 0.898834 0.467192
vt 0.890466 0.548914
vt 0.715426 0.557097
vt 0.891724 0.589982
vt 0.717170 0.614006
vt 0.899242 0.630375
vt 0.727588 0.669980
vt 0.912779 0.669168
vt 0.746347 0.723737
vt 0.904877 0.426552
vt 0.735397 0.387536
vt 0.746347 0.331663
vt 0.912779 0.386232
vt 0.122391 0.828569
vt 0.185036 0.627821
vt 0.171431 0.849412
vt 0.167430 0.649929
vt 0.140033 0.656870
vt 0.078006 0.845105
vt 0.109522 0.613973
vt 0.116389 0.641388
vt 0.047342 0.839104
vt 0.000305 0.802217
vt 0.237160 0.617940
vt 0.256605 0.638450
vt 0.256605 0.856082
vt 0.207901 0.859507
vt 0.209282 0.613298
vt 0.127573 0.984307
vt 0.147950 0.999695
vt 0.005683 0.952989
vt 0.000318 0.948938
vt 0.883593 0.810146
vt 0.907020 0.862208
vt 0.753976 0.817783
vt 0.741547 0.790163
vt 0.145818 0.196933
vt 0.045957 0.196452
vt 0.907020 0.724347
vt 0.880046 0.766335
vt 0.739666 0.766920
vt 0.753976 0.744645
vt 0.147597 0.237932
vt 0.067351 0.233967
vt 0.857979 0.892056
vt 0.834357 0.925614
vt 0.715426 0.851422
vt 0.727958 0.833618
vt 0.178626 0.286235
vt 0.063908 0.277015
vt 0.144053 0.886582
vt 0.144094 0.909900
vt 0.004667 0.929350
vt 0.004656 0.923212
vt 0.147950 0.939942
vt 0.005682 0.937259
vt 0.837296 0.973655
vt 0.716986 0.876909
vt 0.502145 0.326743
vt 0.495179 0.326523
vt 0.502145 0.320021
vt 0.491004 0.322022
vt 0.498037 0.316023
vt 0.490257 0.314084
vt 0.127525 0.962535
vt 0.000305 0.943207
vt 0.143272 0.860117
vt 0.004451 0.916245
vt 0.490257 0.239309
vt 0.735443 0.207435
vt 0.758805 0.241234
vt 0.520190 0.282614
vt 0.792092 0.265320
vt 0.562838 0.313474
vt 0.544177 0.000305
vt 0.777527 0.020894
vt 0.792091 0.059313
vt 0.562838 0.049529
vt 0.783646 0.099523
vt 0.552017 0.101047
vt 0.758236 0.131810
vt 0.519461 0.142415
vt 0.735986 0.166351
vt 0.490954 0.186671
vn -0.9716 -0.0036 0.2364
vn -0.3089 -0.7023 -0.6414
vn -0.4558 0.5157 -0.7254
vn 0.9739 0.0451 -0.2223
vn 0.9459 -0.2420 -0.2159
vn 0.2998 0.7951 -0.5272
vn 0.3391 -0.6238 -0.7042
vn 0.0000 -1.0000 -0.0000
vn -0.3118 -0.6954 -0.6475
vn -0.7303 0.3571 0.5824
vn 0.4062 -0.3516 -0.8435
vn 0.7795 0.0769 0.6216
vn -0.9667 0.1299 -0.2206
vn 0.0000 0.3373 0.9414
vn -0.4249 -0.2020 -0.8824
vn 0.0000 1.0000 -0.0000
vn -0.6534 0.5491 0.5211
vn 0.4995 0.7693 0.3983
vn 0.3615 -0.5531 -0.7506
vn -0.9114 -0.3550 -0.2080
vn 0.0000 0.8061 0.5918
vn 0.9331 0.2897 -0.2130
vn 0.5484 0.6812 0.4850
vn -0.6833 -0.3740 0.6271
vn 0.7908 -0.0725 0.6078
vn -0.9388 -0.2905 -0.1849
vn -0.1498 0.6824 0.7155
vn -0.0715 -0.7045 0.7061
vn 0.7265 0.6716 -0.1452
vn -0.5362 -0.7113 0.4545
vn 0.8028 0.2207 0.5539
vn 0.2938 0.6090 -0.7368
vn -0.9828 -0.1023 -0.1537
vn 0.0671 -0.2488 0.9662
vn 0.7907 0.5636 -0.2391
vn -0.4569 0.3859 -0.8015
vn 0.7879 0.5256 -0.3208
vn -0.6750 0.7379 0.0000
vn -0.7015 0.1227 -0.7020
vn -0.6877 -0.2635 0.6765
vn 0.8174 0.2784 0.5042
vn 0.0289 0.4427 -0.8962
vn -0.9837 -0.1501 -0.0986
vn 0.1960 -0.0604 0.9787
vn -0.4338 -0.0229 -0.9007
vn -0.9719 -0.0789 -0.2218
vn -0.7735 -0.1457 0.6168
vn -0.0000 -0.1734 0.9849
vn 0.7739 -0.1422 0.6172
vn 0.9722 -0.0744 -0.2219
vn 0.4338 -0.0209 -0.9008
vn 0.7962 0.5789 -0.1761
vn 0.4746 0.8236 -0.3105
vn -0.4914 0.7612 -0.4232
vn -0.4526 0.7858 -0.4215
vn -0.9929 -0.0735 -0.0933
vn -0.9192 -0.3887 0.0633
vn -0.1104 -0.7881 0.6055
vn 0.5873 -0.5484 0.5953
vn 0.9454 -0.0622 0.3198
vn 0.9180 -0.1569 0.3642
vn -0.7255 0.3727 0.5786
vn 0.3792 -0.6944 0.6116
vn -0.9692 0.1358 -0.2053
vn -0.7723 0.5452 -0.3260
vn 0.6681 -0.1355 0.7316
vn -0.0398 0.0136 -0.9991
vn 0.8077 -0.1382 0.5731
vn 0.6112 -0.6386 0.4676
vn 0.7850 0.5669 -0.2497
vn -0.2622 0.7916 0.5519
vn 0.2677 0.7160 -0.6447
vn 0.6877 -0.2833 -0.6685
vn -0.0342 0.0264 -0.9991
vn 0.4137 -0.6370 -0.6505
vn 0.3594 -0.0965 0.9282
vn -0.4380 0.8847 -0.1597
vn 0.7951 -0.1489 0.5879
vn 0.7737 0.5753 -0.2654
vn 0.2811 0.7124 -0.6430
vn -0.7934 0.4933 0.3566
vn -0.6316 0.4412 0.6375
vn 0.7845 -0.2138 0.5821
vn 0.3421 0.6150 -0.7105
vn 0.9746 0.0278 -0.2224
vn 0.6426 -0.5696 0.5124
vn 0.0000 -0.6432 0.7657
vn -0.7484 -0.2893 0.5968
vn -0.8667 0.4580 -0.1978
vn -0.3073 0.7060 -0.6381
usemtl Material.001
s off
f 14/1/1 30/2/1 70/3/1 12/4/1
f 14/1/2 2/5/2 31/6/2 30/2/2
f 70/7/3 30/8/3 36/9/3 38/10/3 75/11/3
f 4/12/4 6/13/4 33/14/4 32/15/4
f 6/16/5 4/17/5 15/18/5 17/19/5
f 71/20/6 70/21/6 75/22/6 73/23/6
f 2/24/7 4/12/7 32/15/7 31/25/7
f 1/26/8 3/27/8 5/28/8 7/29/8 9/30/8 11/31/8 13/32/8
f 16/33/9 21/34/9 28/35/9 23/36/9
f 12/37/10 10/38/10 51/39/10 50/40/10
f 4/17/11 2/41/11 16/42/11 15/18/11
f 8/43/12 6/16/12 17/19/12 18/44/12 53/45/12 52/46/12
f 14/47/13 12/37/13 50/40/13 54/48/13 20/49/13 21/50/13
f 10/38/14 8/43/14 52/46/14 51/39/14
f 2/51/15 14/47/15 21/50/15 16/52/15
f 22/53/16 23/54/16 28/55/16 27/56/16 26/57/16 25/58/16 24/59/16
f 20/60/17 19/61/17 26/62/17 27/63/17
f 18/64/18 17/65/18 24/66/18 25/67/18
f 15/68/19 16/69/19 23/70/19 22/71/19
f 21/34/20 20/60/20 27/63/20 28/35/20
f 19/61/21 18/64/21 25/67/21 26/62/21
f 17/65/22 15/68/22 22/71/22 24/66/22
f 8/72/23 71/73/23 33/14/23 6/13/23
f 37/74/24 42/75/24 49/76/24 44/77/24
f 34/78/25 33/79/25 76/80/25 74/81/25
f 30/8/26 29/82/26 37/83/26 36/9/26
f 10/84/27 70/3/27 71/73/27 8/72/27
f 35/85/28 34/78/28 74/81/28 41/86/28 42/87/28
f 33/79/29 71/20/29 73/23/29 76/80/29
f 29/82/30 35/85/30 42/87/30 37/83/30
f 43/88/16 44/89/16 49/90/16 48/91/16 47/92/16 46/93/16 45/94/16
f 41/95/31 40/96/31 47/97/31 48/98/31
f 39/99/32 38/100/32 45/101/32 46/102/32
f 36/103/33 37/74/33 44/77/33 43/104/33
f 42/75/34 41/95/34 48/98/34 49/76/34
f 40/96/35 39/99/35 46/102/35 47/97/35
f 38/105/36 36/103/36 43/104/36 45/106/36
f 61/107/37 60/108/37 67/109/37 68/110/37
f 55/111/14 53/45/14 18/44/14 19/112/14
f 54/48/10 55/111/10 19/112/10 20/49/10
f 63/113/38 64/114/38 69/115/38 68/116/38 67/117/38 66/118/38 65/119/38
f 59/120/39 58/121/39 65/122/39 66/123/39
f 56/124/40 57/125/40 64/126/40 63/127/40
f 62/128/41 61/107/41 68/110/41 69/129/41
f 60/108/42 59/120/42 66/123/42 67/109/42
f 58/130/43 56/124/43 63/127/43 65/131/43
f 57/125/44 62/128/44 69/129/44 64/126/44
f 90/132/45 30/133/45 31/134/45 95/135/45
f 91/136/46 29/137/46 30/133/46 90/132/46
f 92/138/47 35/139/47 29/137/47 91/136/47
f 93/140/48 34/141/48 35/139/48 92/138/48
f 96/142/49 33/143/49 34/141/49 93/140/49
f 94/144/50 32/145/50 33/146/50 96/147/50
f 95/135/51 31/134/51 32/145/51 94/144/51
f 55/148/52 61/149/52 53/150/52
f 60/151/53 61/149/53 55/148/53
f 60/151/54 55/148/54 59/152/54
f 54/153/55 59/152/55 55/148/55
f 56/154/56 58/155/56 50/156/56
f 51/157/57 56/154/57 50/156/57
f 57/158/58 56/159/58 51/160/58
f 57/158/59 52/161/59 62/162/59
f 53/150/60 62/162/60 52/161/60
f 62/162/61 53/150/61 61/149/61
f 10/84/62 12/4/62 70/3/62
f 51/160/63 52/161/63 57/158/63
f 50/156/64 58/155/64 54/153/64
f 59/152/65 54/153/65 58/155/65
f 81/163/66 82/164/66 88/165/66 87/166/66
f 73/167/67 75/168/67 83/169/67 79/170/67
f 77/171/68 40/172/68 41/86/68 74/81/68
f 74/173/69 76/174/69 80/175/69 82/176/69
f 77/171/70 72/177/70 39/178/70 40/172/70
f 72/179/71 77/180/71 81/181/71 78/182/71
f 72/177/72 75/183/72 38/184/72 39/178/72
f 80/185/73 79/186/73 85/187/73 86/188/73
f 79/186/74 83/189/74 89/190/74 85/187/74
f 76/174/75 73/167/75 79/170/75 80/175/75
f 77/180/76 74/191/76 82/192/76 81/181/76
f 75/168/77 72/179/77 78/182/77 83/169/77
f 88/193/78 86/194/78 87/195/78
f 86/194/79 85/196/79 84/197/79 87/195/79
f 85/196/80 89/198/80 84/197/80
f 83/189/81 78/199/81 84/200/81 89/190/81
f 78/199/82 81/163/82 87/166/82 84/200/82
f 82/201/83 80/185/83 86/188/83 88/202/83
f 1/203/84 95/204/84 94/205/84 3/206/84
f 3/206/85 94/205/85 96/207/85 5/208/85
f 5/209/86 96/210/86 93/211/86 7/212/86
f 7/212/87 93/211/87 92/213/87 9/214/87
f 9/214/88 92/213/88 91/215/88 11/216/88
f 11/216/89 91/215/89 90/217/89 13/218/89
f 13/218/90 90/217/90 95/204/90 1/203/90
