# Blender v2.80 (sub 75) OBJ File: 'Tree2.blend'
# www.blender.org
mtllib Tree2.mtl
o Tree_Cylinder.002
v -2.984479 9.019150 1.838915
v -1.699462 10.765222 4.101881
v -4.257411 9.745152 4.360891
v -6.144648 9.745155 1.763351
v -4.257411 9.745152 -0.834189
v -3.382690 12.439663 5.217751
v -2.563704 9.033381 1.994809
v -0.445136 10.145624 1.763351
v -1.929289 9.290007 0.685070
v -1.496574 10.138638 -0.716938
v -6.732104 11.530059 2.841636
v -5.703310 10.758696 4.388644
v -5.703310 10.758697 -0.861942
v -6.809089 12.301425 0.985398
v -1.967603 11.590720 -1.663968
v -5.635904 13.239096 3.301312
v 3.324274 10.736117 -1.721119
v 2.202823 11.863472 -5.172647
v 3.146604 15.980152 1.917253
v 6.953427 16.606916 -1.721119
v 4.398913 17.461506 -1.680017
v 6.260325 11.863472 0.412026
v 4.189377 11.744990 1.085700
v 3.282978 13.058909 2.425319
v 7.268450 12.395606 -1.721119
v 6.260325 11.863473 -3.854264
v 0.886636 11.258698 -1.721119
v -0.366672 12.040384 0.237392
v 0.133365 12.395606 -4.039442
v 4.543111 12.395599 -5.472242
v 7.734018 14.235198 -0.288330
v 7.734018 14.235198 -3.153910
v 3.324274 14.235198 2.915553
v 6.049644 14.235198 2.030026
v 0.598904 14.235198 -5.472265
v 6.049644 14.235198 -5.472265
v 3.324274 14.235198 -6.357792
v 6.515182 16.074791 0.597204
v 2.105437 16.074799 -5.472242
v 6.515182 16.074791 -4.039442
v 4.445725 16.606928 -5.172645
v -1.132329 8.635715 3.099898
v 1.829834 12.025947 6.446204
v 4.725352 12.463821 3.099898
v 2.143972 13.354426 4.169298
v 4.165996 8.635712 4.821413
v 1.449050 7.745112 4.169295
v 4.165996 8.635712 1.378382
v 0.004321 8.582896 0.874235
v 5.437869 9.722591 3.934139
v 5.232792 11.376951 1.634488
v 1.763541 9.574350 6.804249
v 4.252079 11.376947 5.915148
v -0.659057 9.722592 5.915149
v 3.635820 9.750994 -0.142397
v -0.443638 13.009439 3.053578
v -1.280679 18.931273 -4.841706
v 1.928649 18.931265 -0.424482
v -2.663048 18.236876 4.882085
v -2.768744 13.555043 -5.731048
v -0.869877 12.568670 4.548388
v -7.360448 12.860661 -0.424481
v -3.019206 11.378252 -2.065784
v -6.473425 18.931271 -3.154458
v -4.275755 18.250257 -5.225127
v -7.763613 18.250250 -0.424482
v -6.473425 18.931271 2.305495
v 1.367790 18.250250 -3.391446
v -2.164896 20.343580 1.271368
v 1.367790 18.250250 2.542483
v -8.359442 15.895961 -2.258150
v -8.359442 15.895961 1.409188
v -2.715899 15.895961 -6.358445
v -6.203798 15.895961 -5.225157
v 2.927641 17.364147 -1.506671
v 0.771997 15.895961 -5.225157
v 0.771997 15.895961 4.376194
v -6.203798 15.895961 4.376194
v -2.715899 15.895961 5.509481
v -6.799590 13.541670 -3.391446
v -0.192049 12.086656 -2.258144
v 0.383352 -0.017889 -0.408258
v 0.394178 -0.017889 0.449839
v 0.567246 3.373552 0.065682
v -0.136138 3.572491 0.572332
v -0.413948 -0.017889 0.361648
v -0.552941 3.267185 -0.091719
v -0.426368 -0.017889 -0.399819
v -0.017766 4.031896 -0.563010
v 0.009513 6.440316 -0.105180
v -0.236563 6.275096 0.446072
v -0.983376 6.341542 -0.181909
v -0.139386 9.755271 -0.092886
v -0.332645 8.903639 0.534288
v -0.803476 6.847320 0.374761
v -0.780984 9.088730 -0.163653
v -0.171064 7.609155 -0.398829
v -0.434622 5.081543 0.449262
v -2.308341 8.005755 1.261268
v -2.499530 7.870397 1.639800
v -0.702054 5.871757 0.369181
v -0.687914 5.098139 0.267547
v -0.459340 5.659853 0.474157
v -0.774843 5.514623 0.215384
v -0.114382 8.466455 -0.056381
v -0.095424 8.107009 0.243134
v -0.515225 10.092777 0.472315
v -0.908793 10.082206 0.054948
v -2.620004 9.013163 1.682544
v -0.835776 11.899524 -0.147371
v -0.628643 11.970964 -0.219337
v 0.047710 10.314731 0.043610
v 2.137848 11.116526 -0.911758
v 1.169335 9.242153 -0.051753
v 1.958359 10.126538 -0.685188
v 2.310079 10.542337 -0.732487
v 2.708796 11.013697 -0.786105
v 2.352765 10.586434 -0.454836
v 2.019779 10.104346 -0.429509
v 0.341915 13.074615 4.708055
v 0.923319 13.396932 3.642979
v 0.930587 14.246290 3.684361
vt 0.463808 0.760116
vt 0.476901 0.763469
vt 0.438280 0.833091
vt 0.509925 0.843095
vt 0.548952 0.770861
vt 0.368046 0.782566
vt 0.969635 0.094588
vt 0.938119 0.172674
vt 0.891038 0.103884
vt 0.948158 0.060010
vt 0.464475 0.887009
vt 0.983855 0.230915
vt 0.931610 0.228618
vt 0.399965 0.861600
vt 0.876368 0.217429
vt 0.869745 0.144489
vt 0.832919 0.049880
vt 0.876366 0.032918
vt 0.837152 0.000280
vt 0.883887 0.008834
vt 0.918716 0.281333
vt 0.414917 0.940525
vt 0.362463 0.907984
vt 0.913092 0.034638
vt 0.983855 0.022449
vt 0.976995 0.084534
vt 0.968664 0.084246
vt 0.729056 0.794315
vt 0.776122 0.886636
vt 0.717254 0.878172
vt 0.667365 0.770087
vt 0.725320 0.699772
vt 0.819859 0.747221
vt 0.839007 0.886021
vt 0.826754 0.946627
vt 0.665277 0.700047
vt 0.686224 0.638903
vt 0.782091 0.696895
vt 0.837139 0.669254
vt 0.749874 0.960620
vt 0.764379 0.638185
vt 0.895893 0.722801
vt 0.576502 0.705236
vt 0.484650 0.698739
vt 0.511516 0.616263
vt 0.391475 0.586086
vt 0.483139 0.523567
vt 0.456120 0.613099
vt 0.421250 0.531285
vt 0.446802 0.650738
vt 0.362463 0.513843
vt 0.426470 0.470188
vt 0.500633 0.447708
vt 0.541422 0.496279
vt 0.578247 0.444444
vt 0.501130 0.756696
vt 0.430978 0.725959
vt 0.578247 0.759557
vt 0.672042 0.953653
vt 0.678177 0.919430
vt 0.373874 0.675030
vt 0.895893 0.910254
vt 0.875136 0.834546
vt 0.806393 0.861262
vt 0.109529 0.128850
vt 0.148858 0.200287
vt 0.085424 0.228705
vt 0.000280 0.149072
vt 0.203224 0.135024
vt 0.216155 0.198684
vt 0.548360 0.141743
vt 0.498016 0.152060
vt 0.506723 0.085473
vt 0.522046 0.231394
vt 0.483302 0.265461
vt 0.454276 0.206004
vt 0.522413 0.027364
vt 0.451889 0.026992
vt 0.386629 0.203514
vt 0.340509 0.166891
vt 0.422432 0.172169
vt 0.285880 0.220100
vt 0.292304 0.173251
vt 0.315965 0.192059
vt 0.436786 0.103804
vt 0.295442 0.108588
vt 0.264258 0.185204
vt 0.609772 0.000280
vt 0.578774 0.061786
vt 0.481678 0.306633
vt 0.467461 0.300223
vt 0.552254 0.340983
vt 0.512038 0.321981
vt 0.140584 0.044778
vt 0.195519 0.091131
vt 0.053569 0.069532
vt 0.227223 0.708561
vt 0.295701 0.869059
vt 0.159042 0.853294
vt 0.181382 0.628526
vt 0.215478 0.512571
vt 0.344161 0.568890
vt 0.070432 0.888221
vt 0.098254 0.812221
vt 0.258450 0.967506
vt 0.218108 0.897139
vt 0.238615 0.461058
vt 0.291314 0.505190
vt 0.073413 0.612355
vt 0.061787 0.505691
vt 0.140824 0.523296
vt 0.099030 0.730033
vt 0.000280 0.694739
vt 0.155462 0.948610
vt 0.361903 0.950894
vt 0.137517 0.444444
vt 0.014432 0.594517
vt 0.018733 0.797485
vt 0.785501 0.106679
vt 0.818890 0.216829
vt 0.705228 0.194241
vt 0.911609 0.437168
vt 0.839377 0.463432
vt 0.827093 0.351740
vt 0.703023 0.273068
vt 0.610332 0.304408
vt 0.692247 0.382036
vt 0.617149 0.401569
vt 0.548952 0.916577
vt 0.648314 0.493848
vt 0.765550 0.499180
vt 0.709287 0.569802
vt 0.826533 0.000280
vt 0.745839 0.055601
vt 0.675000 0.123083
vt 0.629197 0.208854
vt 0.752870 0.549864
vt 0.361903 0.465944
vt 0.981560 0.753502
vt 0.964804 0.655741
vt 0.984475 0.654332
vt 0.960483 0.737177
vt 0.946692 0.669195
vt 0.937424 0.745370
vt 0.928640 0.656869
vt 0.916292 0.739630
vt 0.910122 0.656345
vt 0.920838 0.818210
vt 0.917050 0.888251
vt 0.896453 0.760396
vt 0.965117 0.818486
vt 0.948716 0.814664
vt 0.984475 0.900168
vt 0.959464 0.919905
vt 0.967760 0.880820
vt 0.944842 0.884442
vt 0.934746 0.830552
vt 0.936806 0.025233
vt 0.921988 0.915414
vt 0.912865 0.963841
vt 0.950097 0.018199
vt 0.969452 0.997890
vt 0.952135 0.999720
vt 0.937768 0.916462
vt 0.827157 0.495987
vt 0.911677 0.498942
vt 0.911455 0.505682
vt 0.827123 0.541329
vt 0.934674 0.530453
vt 0.941468 0.544014
vt 0.574971 0.855019
vt 0.571333 0.890342
vt 0.564710 0.852550
vt 0.586500 0.887212
vt 0.582936 0.531431
vt 0.578807 0.521875
vt 0.581576 0.510941
vt 0.586500 0.761719
vt 0.577826 0.763394
vt 0.505013 0.363885
vt 0.449949 0.326578
vt 0.945041 0.638185
vt 0.937626 0.785103
vt 0.929861 0.786996
vt 0.589776 0.510466
vt 0.589777 0.525711
vt 0.971809 0.852951
vt 0.578807 0.504088
vt 0.589668 0.485569
vt 0.589668 0.509906
vt 0.949267 0.938975
vt 0.593715 0.444444
vt 0.593715 0.485009
vt 0.578807 0.472418
vt 0.827097 0.545322
vt 0.827093 0.543325
vt 0.879586 0.511617
vt 0.560637 0.884083
vt 0.551165 0.886337
vt 0.961818 0.872618
vt 0.934072 0.806131
vt 0.939918 0.799908
vt 0.563134 0.780308
vt 0.570460 0.772810
vt 0.835643 0.515031
vt 0.557442 0.773324
vt 0.702822 0.811654
vt 0.843371 0.524166
vt 0.929157 0.797715
vt 0.925638 0.499430
vt 0.926409 0.506656
vt 0.906832 0.965313
vt 0.474640 0.402060
vt 0.522261 0.374523
vt 0.689405 0.802604
vt 0.612545 0.802411
vt 0.577328 0.490249
vt 0.550849 0.608857
vt 0.436541 0.229872
vt 0.451891 0.292801
vt 0.549512 0.760116
vt 0.941468 0.499811
vt 0.914108 0.326293
vt 0.912921 0.388849
vt 0.915259 0.281893
vt 0.641384 0.742695
vt 0.610332 0.788511
vt 0.915259 0.491995
vt 0.910254 0.495427
vt 0.869431 0.465779
vt 0.833162 0.048140
vt 0.827093 0.077718
vt 0.833294 0.205977
vt 0.606255 0.443884
vt 0.553215 0.391617
vt 0.609772 0.377825
vt 0.826533 0.579238
vt 0.799121 0.599269
vt 0.765132 0.637625
vn -0.0593 -0.9668 0.2484
vn 0.4535 -0.7708 0.4475
vn -0.2246 -0.9607 0.1632
vn -0.2175 -0.9632 -0.1580
vn -0.0256 -0.9677 -0.2506
vn 0.2361 -0.3633 0.9013
vn -0.8266 -0.4643 0.3182
vn -0.1584 -0.2521 0.9546
vn -0.9596 -0.2717 -0.0731
vn -0.1517 -0.2426 -0.9582
vn 0.7881 -0.0993 -0.6074
vn -0.8457 0.4794 0.2343
vn -0.5306 0.3524 0.7709
vn 0.1098 -0.5177 -0.8485
vn -0.9065 -0.3196 -0.2758
vn -0.7216 0.2943 0.6266
vn 0.1437 -0.8656 -0.4796
vn -0.5256 -0.7602 -0.3819
vn -0.5256 -0.7602 0.3819
vn 0.4688 -0.8816 0.0543
vn 0.3651 -0.9309 -0.0056
vn 0.3643 -0.7872 0.4976
vn 0.1494 -0.9443 0.2933
vn -0.2033 -0.9483 -0.2437
vn 0.1108 -0.9335 -0.3409
vn 0.8488 -0.4415 0.2910
vn -0.5156 -0.4415 -0.7343
vn 0.5391 -0.4415 -0.7173
vn 0.7685 -0.3126 0.5583
vn -0.2935 -0.3126 -0.9034
vn 0.7685 -0.3126 -0.5583
vn 0.1386 0.8978 0.4180
vn 0.3061 0.9257 -0.2224
vn 0.3776 0.8844 -0.2744
vn 0.3095 0.9124 0.2679
vn 0.8577 0.4415 -0.2635
vn 0.7843 0.2453 -0.5698
vn 0.5156 0.4415 -0.7343
vn 0.0145 0.4415 -0.8972
vn -0.2996 0.2453 -0.9220
vn 0.2939 0.5399 0.7887
vn 0.7843 0.2453 0.5698
vn 0.8577 0.4415 0.2635
vn 0.2935 0.3126 -0.9034
vn 0.2996 -0.2453 -0.9220
vn -0.0145 -0.4415 -0.8972
vn 0.2678 0.4988 0.8243
vn 0.2862 -0.3771 0.8808
vn 0.3308 -0.5116 0.7930
vn 0.9499 0.3126 0.0000
vn 0.9694 -0.2453 0.0000
vn 0.8488 -0.4415 -0.2910
vn 0.1443 -0.8844 -0.4440
vn -0.3887 -0.8709 -0.3008
vn 0.4668 -0.8844 -0.0000
vn 0.3585 -0.9335 0.0000
vn 0.2813 -0.5830 0.7622
vn -0.2790 -0.9528 -0.1199
vn 0.0443 -0.9634 -0.2644
vn -0.8812 -0.3720 0.2917
vn 0.6998 -0.2836 0.6557
vn 0.8266 -0.2759 -0.4905
vn 0.3252 0.7966 0.5096
vn 0.3517 0.9334 0.0715
vn -0.3157 0.9421 0.1128
vn 0.4399 0.8105 0.3868
vn -0.4641 0.4195 0.7801
vn -0.3331 0.1451 0.9317
vn 0.9065 0.3196 0.2758
vn 0.1413 -0.1490 -0.9787
vn -0.8895 0.4398 -0.1239
vn 0.2462 0.1335 0.9600
vn 0.5206 -0.3305 0.7872
vn 0.9515 0.2836 0.1192
vn 0.8955 -0.3196 -0.3098
vn 0.0837 -0.7894 -0.6081
vn 0.1682 -0.8906 -0.4225
vn -0.4399 -0.8105 0.3868
vn -0.2575 -0.7791 0.5716
vn 0.6497 -0.7602 0.0000
vn 0.3115 -0.9503 0.0000
vn 0.1363 -0.8213 0.5539
vn -0.0763 0.9690 -0.2349
vn 0.2520 0.9503 -0.1831
vn -0.8488 0.4415 -0.2910
vn 0.7086 0.6467 -0.2824
vn 0.4391 0.4803 0.7593
vn -0.4284 0.4829 0.7637
vn -0.7685 0.3126 -0.5583
vn 0.8747 0.4661 0.1325
vn 0.2999 0.2406 0.9231
vn -0.7685 0.3126 0.5583
vn -0.2894 -0.8142 -0.5033
vn 0.1797 -0.8511 -0.4932
vn -0.4025 -0.8727 -0.2764
vn -0.7669 -0.4974 0.4055
vn -0.7484 -0.3799 0.5437
vn 0.5859 0.0500 0.8088
vn 0.0080 -0.6443 0.7647
vn 0.2689 -0.4925 0.8277
vn 0.2989 -0.2533 -0.9200
vn -0.4391 -0.4803 -0.7593
vn -0.7843 -0.2453 -0.5698
vn -0.8577 -0.4415 -0.2635
vn -0.2817 -0.4110 0.8670
vn -0.2989 0.2533 0.9200
vn -0.0689 -0.3914 0.9176
vn 0.6697 0.3434 0.6585
vn 0.7921 0.5450 0.2748
vn 0.8001 0.2293 -0.5543
vn -0.2999 -0.2406 -0.9231
vn -0.5391 0.4415 -0.7173
vn -0.9499 -0.3126 0.0000
vn -0.9694 0.2453 0.0000
vn -0.8488 0.4415 0.2910
vn -0.1673 0.8614 0.4795
vn 0.2943 0.8073 0.5116
vn 0.4140 0.8670 0.2773
vn -0.4668 0.8844 0.0000
vn -0.3115 0.9503 0.0000
vn -0.1443 0.8844 -0.4440
vn -0.0104 -0.0392 -0.9992
vn 0.9985 -0.0524 -0.0126
vn -0.1084 -0.0499 0.9929
vn -0.9991 -0.0400 0.0163
vn -0.3064 0.0289 -0.9515
vn -0.5698 -0.1037 -0.8152
vn 0.7816 0.1079 -0.6143
vn 0.8758 0.1841 0.4461
vn 0.1357 -0.0254 -0.9904
vn -0.1634 -0.0391 0.9858
vn 0.4128 -0.8300 -0.3750
vn -0.8909 -0.0147 -0.4539
vn 0.4156 -0.8305 -0.3709
vn 0.8460 0.1578 -0.5092
vn 0.1366 -0.0264 -0.9903
vn -0.7274 0.0440 0.6848
vn 0.7297 -0.6435 -0.2311
vn 0.1653 -0.2484 -0.9544
vn -0.8217 -0.2589 -0.5076
vn -0.3235 -0.2925 0.8999
vn -0.7996 -0.0926 0.5934
vn -0.4833 -0.6212 0.6169
vn -0.3200 -0.2535 -0.9129
vn 0.0600 -0.4497 -0.8912
vn 0.0000 -1.0000 0.0000
vn 0.7568 0.0500 -0.6518
vn 0.5946 0.0605 0.8017
vn -0.8537 0.0356 0.5195
vn -0.6926 0.0409 -0.7202
vn -0.2118 0.0378 0.9766
vn -0.5843 -0.0495 0.8100
vn 0.5945 0.0596 0.8019
vn -0.4381 -0.0573 0.8971
vn -0.1131 0.1103 -0.9874
vn 0.9950 -0.0275 -0.0959
vn -0.9660 0.0695 0.2490
vn 0.9506 -0.2925 -0.1042
vn 0.4947 -0.8690 0.0087
vn -0.9558 -0.0596 -0.2880
vn 0.5679 0.1296 0.8128
vn -0.3211 0.0001 0.9470
vn 0.2205 0.1610 -0.9620
vn 0.9701 0.2425 0.0000
vn 0.7392 -0.6467 0.1881
vn -0.5840 -0.1162 0.8034
vn -0.3777 0.2554 -0.8900
vn 0.9133 0.3612 -0.1881
vn 0.9990 0.0182 -0.0414
vn 0.8973 0.1110 0.4273
vn -0.4330 -0.0502 0.9000
vn 0.4065 0.5956 -0.6929
vn 0.0121 0.3934 -0.9193
vn 0.6603 -0.6291 0.4101
vn -0.7898 -0.2358 -0.5663
vn 0.6959 0.6070 -0.3837
vn -0.8109 -0.2845 -0.5113
vn 0.0060 0.0434 0.9990
vn 0.0612 -0.9451 0.3209
vn -0.3213 0.5270 0.7868
vn -0.8970 -0.1330 0.4215
vn -0.3572 0.5867 0.7267
vn 0.7836 -0.6079 -0.1280
vn -0.3279 -0.0009 -0.9447
vn -0.4164 0.0021 -0.9092
vn -0.1755 -0.9106 -0.3743
vn -0.4438 -0.3785 -0.8123
vn -0.2482 -0.9439 0.2179
vn 0.8072 -0.1157 -0.5788
vn -0.2010 0.1646 -0.9657
vn 0.8553 0.2466 0.4557
vn -0.1771 0.9462 -0.2709
vn -0.1805 0.9458 -0.2701
vn -0.6419 0.3207 -0.6965
vn -0.0920 0.9669 -0.2378
vn -0.0171 0.9266 0.3756
vn 0.1678 -0.2793 0.9454
vn 0.7285 0.2011 -0.6548
vn 0.9346 0.0562 -0.3512
vn 0.5744 -0.0107 0.8185
vn 0.9706 -0.0487 0.2356
vn 0.5024 0.7686 -0.3961
vn 0.4899 0.7647 -0.4186
vn 0.5284 0.3341 -0.7805
vn -0.1416 -0.5302 -0.8360
vn 0.7626 -0.6467 -0.0145
vn 0.1855 -0.6326 -0.7519
vn 0.0473 0.1422 -0.9887
vn -0.2072 -0.9666 0.1506
vn -0.2546 -0.9439 -0.2102
vn -0.5146 -0.8241 -0.2369
vn -0.5902 -0.8053 -0.0562
vn 0.2561 -0.9666 0.0000
vn 0.3314 -0.9433 0.0174
vn 0.2679 -0.9635 -0.0037
vn 0.2351 -0.9664 -0.1042
vn 0.2103 -0.9770 -0.0339
vn -0.3848 -0.1127 -0.9161
vn -0.7783 -0.6253 0.0563
vn -0.9047 0.1304 0.4055
vn 0.0573 0.9436 0.3262
vn -0.7867 0.2189 0.5773
vn -0.8827 -0.0141 -0.4697
vn 0.0833 0.9901 -0.1133
vn 0.1584 -0.3846 0.9094
vn 0.2336 -0.6350 0.7363
vn -0.0074 0.8973 0.4413
vn -0.0811 0.9087 -0.4094
vn -0.3979 0.9046 0.1533
vn 0.2671 0.4989 0.8245
vn 0.7062 -0.2150 0.6746
vn -0.8906 0.0027 -0.4549
vn -0.9488 -0.3094 0.0642
usemtl Material.001
s off
f 1/1/1 7/2/1 3/3/1
f 2/4/2 7/2/2 8/5/2
f 1/1/3 3/3/3 4/6/3
f 1/7/4 4/8/4 5/9/4
f 1/7/5 5/9/5 9/10/5
f 3/3/6 2/4/6 6/11/6
f 4/8/7 12/12/7 11/13/7
f 3/3/8 6/11/8 12/14/8
f 4/8/9 11/13/9 14/15/9
f 5/9/10 13/16/10 15/17/10
f 10/18/11 110/19/11 108/20/11
f 11/13/12 16/21/12 14/15/12
f 12/14/13 6/11/13 16/22/13
f 10/18/14 5/9/14 15/17/14
f 13/16/15 4/8/15 14/15/15
f 11/23/16 12/14/16 16/22/16
f 9/10/17 5/9/17 10/24/17
f 5/9/18 4/8/18 13/16/18
f 4/6/19 3/3/19 12/14/19
f 8/25/20 7/26/20 9/10/20
f 7/26/21 109/27/21 9/10/21
f 3/3/22 7/2/22 2/4/22
f 17/28/23 22/29/23 23/30/23
f 17/28/24 27/31/24 18/32/24
f 17/28/25 18/32/25 26/33/25
f 22/29/26 25/34/26 31/35/26
f 18/32/27 29/36/27 35/37/27
f 26/33/28 30/38/28 36/39/28
f 22/29/29 31/35/29 34/40/29
f 18/32/30 35/37/30 37/41/30
f 26/33/31 36/39/31 32/42/31
f 19/43/32 38/44/32 21/45/32
f 20/46/33 41/47/33 21/48/33
f 20/46/34 40/49/34 41/47/34
f 21/45/35 38/44/35 20/50/35
f 32/51/36 40/49/36 20/46/36
f 32/51/37 36/52/37 40/49/37
f 36/52/38 41/47/38 40/49/38
f 37/53/39 39/54/39 41/47/39
f 37/53/40 35/55/40 39/54/40
f 34/56/41 38/44/41 19/43/41
f 34/56/42 31/57/42 38/44/42
f 31/57/43 20/50/43 38/44/43
f 36/52/44 37/53/44 41/47/44
f 36/39/45 30/38/45 37/41/45
f 30/38/46 18/32/46 37/41/46
f 33/58/47 34/56/47 19/43/47
f 33/59/48 24/60/48 34/40/48
f 24/60/49 22/29/49 34/40/49
f 31/57/50 32/61/50 20/50/50
f 31/35/51 25/34/51 32/62/51
f 25/34/52 26/63/52 32/62/52
f 26/33/53 18/32/53 30/38/53
f 18/32/54 27/31/54 29/36/54
f 25/34/55 22/29/55 26/63/55
f 22/64/56 17/28/56 26/33/56
f 23/30/57 22/29/57 24/60/57
f 47/65/58 42/66/58 49/67/58
f 47/65/59 49/67/59 48/68/59
f 42/66/60 54/69/60 2/70/60
f 46/71/61 50/72/61 53/73/61
f 48/74/62 55/75/62 51/76/62
f 43/77/63 53/73/63 45/78/63
f 24/79/64 45/80/64 44/81/64
f 56/82/65 120/83/65 121/84/65
f 45/78/66 53/73/66 44/85/66
f 54/69/67 43/86/67 120/83/67 61/87/67
f 54/88/68 52/89/68 43/77/68
f 50/72/69 44/85/69 53/73/69
f 55/75/70 119/90/70 118/91/70
f 2/70/71 61/87/71 56/82/71
f 52/89/72 53/73/72 43/77/72
f 52/89/73 46/71/73 53/73/73
f 50/72/74 51/76/74 44/81/74
f 50/72/75 48/74/75 51/76/75
f 48/74/76 49/92/76 55/75/76
f 114/93/77 55/75/77 49/92/77
f 42/66/78 47/65/78 54/69/78
f 47/65/79 52/94/79 54/95/79
f 50/72/80 46/71/80 48/74/80
f 46/96/81 47/65/81 48/68/81
f 47/65/82 46/96/82 52/94/82
f 69/97/83 57/98/83 64/99/83
f 69/100/84 58/101/84 57/102/84
f 64/99/85 71/103/85 66/104/85
f 57/98/39 73/105/39 65/106/39
f 58/101/86 75/107/86 68/108/86
f 59/109/87 77/110/87 70/111/87
f 67/112/88 78/113/88 59/109/88
f 64/99/89 74/114/89 71/103/89
f 57/98/44 76/115/44 73/105/44
f 58/101/90 19/116/90 75/107/90
f 59/109/91 79/117/91 77/110/91
f 67/112/92 72/118/92 78/113/92
f 60/119/93 63/120/93 80/121/93
f 81/122/94 63/123/94 60/124/94
f 63/120/95 62/125/95 80/121/95
f 72/126/96 62/125/96 16/127/96
f 72/126/97 16/127/97 78/128/97
f 2/4/98 56/129/98 6/11/98
f 79/130/99 16/127/99 56/131/99
f 79/130/100 56/131/100 77/132/100
f 76/133/101 60/119/101 73/134/101
f 74/135/102 60/119/102 80/121/102
f 74/135/103 80/121/103 71/136/103
f 71/136/104 80/121/104 62/125/104
f 78/128/105 16/127/105 79/130/105
f 78/113/106 79/117/106 59/109/106
f 77/132/107 56/131/107 122/137/107
f 77/110/108 19/116/108 70/111/108
f 70/111/109 19/116/109 58/101/109
f 75/107/110 76/138/110 68/108/110
f 68/108/38 76/138/38 57/102/38
f 73/134/111 60/119/111 74/135/111
f 73/105/40 74/114/40 65/106/40
f 65/106/112 74/114/112 64/99/112
f 71/136/113 62/125/113 72/126/113
f 71/103/114 72/118/114 66/104/114
f 66/104/115 72/118/115 67/112/115
f 67/112/116 59/109/116 69/100/116
f 69/100/117 59/109/117 70/111/117
f 69/100/118 70/111/118 58/101/118
f 58/101/34 68/108/34 57/102/34
f 66/104/119 67/112/119 64/99/119
f 64/99/120 67/112/120 69/97/120
f 57/98/121 65/106/121 64/99/121
f 89/139/122 82/140/122 88/141/122
f 84/142/123 83/143/123 82/140/123
f 85/144/124 86/145/124 83/143/124
f 87/146/125 88/147/125 86/145/125
f 92/148/126 96/149/126 89/150/126
f 87/146/127 92/148/127 89/150/127
f 89/139/128 90/151/128 84/142/128
f 84/142/129 90/151/129 91/152/129
f 96/153/130 93/154/130 105/155/130
f 91/152/131 94/156/131 95/157/131
f 108/158/132 9/10/132 10/24/132
f 96/149/133 108/159/133 110/160/133
f 107/161/134 9/10/134 108/158/134
f 93/154/135 111/162/135 28/163/135
f 111/162/136 93/154/136 96/153/136
f 95/157/137 107/164/137 108/159/137
f 97/165/138 115/166/138 119/167/138
f 97/168/139 113/169/139 117/170/139
f 100/171/140 1/172/140 99/173/140
f 100/171/141 7/174/141 1/172/141
f 101/175/142 104/176/142 102/177/142
f 98/178/143 100/171/143 102/179/143
f 114/93/144 112/180/144 113/181/144
f 114/93/145 119/90/145 55/75/145
f 88/182/146 82/140/146 83/143/146 86/145/146
f 89/139/147 84/142/147 82/140/147
f 84/142/148 85/144/148 83/143/148
f 85/144/149 87/146/149 86/145/149
f 87/146/150 89/150/150 88/147/150
f 85/144/151 91/152/151 98/183/151
f 98/183/152 102/184/152 85/144/152
f 85/144/153 84/142/153 91/152/153
f 101/175/154 98/185/154 103/186/154
f 89/139/155 96/153/155 105/155/155 97/187/155
f 106/188/156 97/189/156 105/190/156
f 92/148/157 95/157/157 96/149/157
f 112/191/158 94/156/158 93/154/158
f 8/25/159 9/10/159 107/161/159
f 108/159/160 96/149/160 95/157/160
f 94/192/161 112/193/161 107/194/161
f 107/164/162 95/157/162 94/156/162
f 112/191/163 93/154/163 28/163/163
f 117/170/164 116/195/164 115/196/164 97/168/164
f 97/165/165 119/167/165 114/197/165
f 98/185/166 101/175/166 102/177/166
f 99/173/167 1/172/167 109/198/167
f 7/199/168 99/173/168 109/198/168
f 93/154/169 106/200/169 105/155/169
f 94/156/170 106/200/170 93/154/170
f 101/201/171 103/202/171 95/157/171
f 101/203/172 99/173/172 7/199/172
f 101/203/173 104/204/173 99/173/173
f 97/165/174 114/197/174 106/205/174
f 104/204/175 102/179/175 100/171/175
f 103/206/176 101/203/176 7/199/176
f 100/171/177 99/173/177 104/204/177
f 103/202/178 98/183/178 91/152/178 95/157/178
f 17/28/179 23/30/179 117/207/179
f 114/197/180 113/169/180 105/208/180
f 101/201/181 95/157/181 92/148/181 87/146/181 85/144/181 102/184/181 104/209/181
f 114/197/182 105/208/182 106/205/182
f 119/167/183 115/166/183 116/210/183 118/211/183
f 110/160/184 111/212/184 96/149/184
f 112/180/185 28/213/185 113/181/185
f 1/7/186 9/10/186 109/27/186
f 107/214/187 112/180/187 114/93/187 49/92/187
f 113/215/188 28/216/188 27/31/188
f 110/19/189 10/18/189 15/17/189
f 39/54/190 35/55/190 76/217/190
f 97/187/191 91/152/191 90/151/191
f 75/218/192 39/54/192 76/217/192
f 39/54/193 75/218/193 41/47/193
f 105/208/194 113/169/194 97/168/194
f 41/47/195 75/218/195 21/45/195
f 21/45/196 75/218/196 19/43/196
f 98/178/197 7/174/197 100/171/197
f 23/219/198 55/75/198 117/220/198
f 97/187/199 90/151/199 89/139/199
f 98/221/200 103/206/200 7/199/200
f 106/200/201 94/156/201 91/152/201 97/187/201
f 44/81/202 51/76/202 24/79/202
f 23/219/203 24/79/203 51/76/203
f 51/76/204 55/75/204 23/219/204
f 118/91/205 117/220/205 55/75/205
f 116/210/206 117/222/206 118/211/206
f 35/223/207 29/224/207 60/124/207
f 76/225/208 35/223/208 60/124/208
f 113/215/209 27/31/209 17/28/209 117/207/209
f 60/124/210 29/224/210 81/122/210
f 29/36/211 27/31/211 81/226/211
f 27/31/212 28/216/212 81/226/212
f 81/226/213 28/216/213 111/227/213
f 111/228/214 110/229/214 81/122/214
f 15/230/215 81/122/215 110/229/215
f 81/122/216 15/230/216 63/123/216
f 15/231/217 13/16/217 63/232/217
f 63/232/218 13/16/218 62/233/218
f 13/16/219 14/15/219 62/233/219
f 62/233/220 14/15/220 16/21/220
f 6/11/221 56/129/221 16/22/221
f 61/87/222 2/70/222 54/69/222
f 2/234/223 8/235/223 42/236/223
f 45/80/224 24/79/224 121/84/224
f 24/237/225 33/238/225 56/131/225
f 33/238/226 122/137/226 56/131/226
f 121/84/227 120/83/227 43/86/227 45/80/227
f 121/84/228 24/79/228 56/82/228
f 61/87/229 120/83/229 56/82/229
f 122/137/230 33/238/230 19/239/230
f 122/137/231 19/239/231 77/132/231
f 42/236/232 8/235/232 49/92/232
f 8/235/233 107/214/233 49/92/233
