# Blender v2.80 (sub 75) OBJ File: 'Trunk.blend'
# www.blender.org
mtllib Trunk.mtl
o Trunk_Cylinder
v 0.385198 1.938323 -3.987019
v 0.385198 1.938323 4.256000
v 0.924918 1.395655 -3.987019
v 0.924918 1.395655 4.256000
v 0.922834 0.630291 -3.807264
v 0.380166 0.090571 -3.987019
v 0.380166 0.090571 3.987019
v -0.385198 0.092655 -4.097742
v -0.385198 0.092655 3.736884
v -0.922834 1.400687 2.384296
v -0.924918 0.635323 3.816590
v -0.922834 1.400688 -3.987019
v -0.922834 1.400687 3.816590
v -0.933419 0.386051 -3.922917
v 0.922834 0.630291 1.635817
v 0.924918 1.395655 0.980910
v 0.772804 1.293932 -1.268572
v 0.805200 1.516028 -0.486924
v 0.924450 1.223661 -0.868212
v 0.924557 1.262849 -0.446987
v 0.924297 1.167458 -0.213010
v -0.608160 2.061940 -4.229471
v 0.005751 2.084217 -4.129234
v -0.380166 1.871412 -2.218239
v -0.924589 0.865490 -4.125022
v -0.924918 0.635323 -1.772745
v -0.783234 1.400687 0.242695
v -0.923255 1.245978 0.710245
v -0.814100 1.508830 1.270297
v -0.640878 1.912807 3.987019
v -0.243599 2.076600 3.987019
v -0.380166 1.940407 2.747285
v 1.089370 0.760539 3.987019
v 0.879752 0.270511 3.987019
v 0.406029 1.982110 -4.047034
v 0.976505 1.408519 -4.047034
v 0.976505 1.408518 4.313674
v 0.406029 1.982110 4.313674
v 0.824391 1.306795 -1.288466
v 0.974302 0.599541 -3.867280
v 1.140858 0.737211 4.044693
v 0.974302 0.599540 1.658789
v 0.400710 0.029065 -4.047034
v 0.400710 0.029064 4.044693
v -0.408267 0.031268 -4.157757
v -0.408268 0.031267 3.794558
v -0.976540 1.413837 2.418316
v -0.976986 1.250311 0.719557
v -0.978744 0.604859 3.874264
v 0.923163 0.231748 4.044693
v -0.978395 0.841914 -4.185037
v -0.976540 1.413837 -4.047034
v -0.976540 1.413837 3.874264
v -0.836940 1.413837 0.245107
v -0.978743 0.604859 -1.800080
v -0.668931 1.951471 4.044693
v 0.004959 2.128062 -4.189250
v 0.976505 1.408518 0.994217
v -0.637767 2.099058 -4.289486
v 0.849965 1.535750 -0.495281
v 0.976010 1.226723 -0.882197
v 0.976123 1.268144 -0.454755
v 0.975848 1.167317 -0.217325
v -0.977117 0.345405 -3.982933
v -0.402949 1.984313 2.786661
v -0.402949 1.915317 -2.252148
v -0.861611 1.528143 1.287875
v -0.258599 2.120484 4.044693
v 0.406029 1.982110 0.101203
v 0.385198 1.938323 0.356694
v -0.094335 1.983472 1.650721
v 0.087762 1.982977 1.607538
v 0.042363 1.983100 1.837383
v -0.057495 1.983372 1.832368
v -0.029937 2.363844 1.870149
v 0.022055 2.363703 1.857819
v 0.009093 2.363738 1.923444
v -0.019419 2.363816 1.922013
vt 0.347386 0.311807
vt 0.313965 0.320638
vt 0.285859 0.280106
vt 0.294250 0.343361
vt 0.301106 0.374062
vt 0.055762 0.499060
vt 0.113362 0.300942
vt 0.320786 0.402649
vt 0.153262 0.635941
vt 0.348442 0.419189
vt 0.373632 0.401913
vt 0.392541 0.378698
vt 0.374605 0.457931
vt 0.387239 0.342669
vt 0.410914 0.316869
vt 0.999828 0.279620
vt 0.942920 0.288544
vt 0.989738 0.140050
vt 0.874213 0.763563
vt 0.785598 0.655231
vt 0.882074 0.659674
vt 0.869563 0.553398
vt 0.681495 0.551150
vt 0.601609 0.440408
vt 0.876994 0.443701
vt 0.611434 0.330740
vt 0.882074 0.333976
vt 0.877179 0.245730
vt 0.027843 0.962038
vt 0.000172 0.880168
vt 0.104795 0.961340
vt 0.204806 0.897111
vt 0.206655 0.976550
vt 0.368314 0.317514
vt 0.362099 0.203859
vt 0.368969 0.401392
vt 0.389282 0.377611
vt 0.012797 0.396723
vt 0.000172 0.394359
vt 0.102174 0.294670
vt 0.218925 0.752204
vt 0.214037 0.797880
vt 0.206999 0.805113
vt 0.209904 0.746924
vt 0.294825 0.701524
vt 0.450555 0.716730
vt 0.450105 0.726785
vt 0.290497 0.712064
vt 0.058417 0.164983
vt 0.098612 0.303485
vt 0.043967 0.162928
vt 0.323505 0.400306
vt 0.350762 0.416094
vt 0.314712 0.322716
vt 0.296693 0.344551
vt 0.177563 0.059294
vt 0.168034 0.048778
vt 0.384704 0.342376
vt 0.404985 0.319955
vt 0.554579 0.715586
vt 0.558674 0.723289
vt 0.367656 0.320148
vt 0.303904 0.373170
vt 0.369131 0.442968
vt 0.347636 0.314049
vt 0.328375 0.763870
vt 0.325807 0.735586
vt 0.335183 0.727508
vt 0.335183 0.773416
vt 0.144467 0.645717
vt 0.042143 0.503941
vt 0.295232 0.733974
vt 0.288063 0.727128
vt 0.260395 0.790054
vt 0.265969 0.797639
vt 0.276609 0.767702
vt 0.266312 0.774769
vt 0.259355 0.757610
vt 0.265969 0.754417
vt 0.528584 0.059106
vt 0.372397 0.012687
vt 0.373389 0.000172
vt 0.537119 0.050800
vt 0.250313 0.736054
vt 0.251426 0.727128
vt 0.546620 0.141373
vt 0.556763 0.135303
vt 0.232468 0.740375
vt 0.228632 0.730966
vt 0.586662 0.654564
vt 0.592312 0.661309
vt 0.113173 0.815782
vt 0.119939 0.777903
vt 0.206655 0.727128
vt 0.550810 0.374797
vt 0.592312 0.316851
vt 0.732581 0.104811
vt 0.799906 0.217657
vt 0.712634 0.131578
vt 0.470951 0.566839
vt 0.435865 0.580080
vt 0.882418 0.221926
vt 0.924494 0.092228
vt 0.953678 0.097264
vt 0.767178 0.634955
vt 0.740071 0.759434
vt 0.751517 0.677428
vt 0.288294 0.247900
vt 0.360003 0.203674
vt 0.269803 0.279770
vt 0.595349 0.660914
vt 0.598562 0.568495
vt 0.592656 0.515924
vt 0.600587 0.767904
vt 0.703735 0.657797
vt 0.339026 0.772196
vt 0.337198 0.770889
vt 0.336922 0.767069
vt 0.339026 0.765200
vt 0.243525 0.211036
vt 0.646807 0.000172
vt 0.654438 0.110399
vt 0.597626 0.027324
vt 0.455102 0.651314
vt 0.882509 0.049732
vt 0.909306 0.002620
vt 0.945114 0.086153
vt 0.930245 0.085714
vt 0.381508 0.734393
vt 0.386773 0.746730
vt 0.337893 0.762624
vt 0.336389 0.759102
vt 0.390741 0.755751
vt 0.390741 0.780252
vt 0.378484 0.727128
vt 0.335526 0.757028
vt 0.604892 0.111264
vt 0.999828 0.000172
vt 0.744986 0.627370
vt 0.753602 0.640500
vt 0.247572 0.270807
vt 0.264133 0.268521
vt 0.606807 0.221025
vt 0.693855 0.090140
vt 0.476707 0.601367
vn -0.7075 -0.7036 -0.0659
vn -0.9984 -0.0105 -0.0563
vn -0.7052 0.7090 0.0000
vn 0.0027 1.0000 0.0000
vn 0.4719 0.8817 0.0000
vn 1.0000 -0.0032 -0.0002
vn 0.8723 -0.4676 -0.1432
vn 0.3420 0.9397 0.0000
vn 0.7075 0.7037 0.0650
vn 0.9984 0.0096 0.0554
vn 0.7052 -0.7090 -0.0000
vn -0.0027 -1.0000 -0.0000
vn -0.4834 -0.8754 -0.0000
vn -1.0000 0.0032 0.0002
vn -0.8662 0.4788 0.1430
vn 0.2649 -0.9628 -0.0537
vn 0.7277 0.1637 -0.6661
vn 0.5044 0.8519 0.1409
vn -0.1038 0.9762 -0.1904
vn 0.7316 -0.0020 0.6817
vn -0.5144 -0.8534 0.0844
vn 0.1665 0.7037 -0.6908
vn -0.7614 -0.1424 -0.6325
vn -0.6965 -0.4160 0.5846
vn 0.8654 0.4983 -0.0529
vn 0.5657 -0.5243 0.6365
vn -0.8513 -0.4726 -0.2279
vn -0.3809 0.6084 -0.6962
vn 0.5012 -0.8611 -0.0849
vn -0.0812 -0.7985 -0.5965
vn -0.5274 0.8439 -0.0982
vn 0.1021 0.6940 -0.7127
vn 0.1882 0.9122 0.3641
vn 0.5907 -0.5114 -0.6242
vn -0.2233 0.6695 0.7084
vn -0.2870 -0.9532 0.0947
vn 0.3234 -0.9403 -0.1057
vn -0.3613 -0.9237 -0.1275
vn 0.3739 -0.8952 0.2426
vn 0.1232 0.9880 -0.0933
vn -0.3914 -0.7230 0.5693
vn -0.0808 0.9739 0.2119
vn 0.5449 0.4401 0.7137
vn -0.8360 -0.5273 0.1515
vn -0.5643 -0.5613 -0.6054
vn -0.1001 0.9905 -0.0941
vn -0.2469 0.6594 0.7101
vn 0.9221 0.3298 0.2024
vn -0.5560 -0.5529 0.6206
vn -0.0011 0.9232 0.3843
vn -0.7432 0.6686 -0.0232
vn 0.7456 -0.6660 0.0235
vn -0.8915 0.4390 -0.1118
vn 0.8815 -0.4587 0.1122
vn -0.0370 0.9992 -0.0128
vn 0.0406 -0.9991 0.0139
vn 0.7304 0.6684 -0.1408
vn 0.8202 0.5713 -0.0307
vn -0.8215 -0.5695 0.0299
vn -0.6992 -0.7007 0.1419
vn -0.9952 0.0926 0.0324
vn -0.6973 0.7164 0.0227
vn 0.9947 -0.0977 -0.0328
vn 0.6968 -0.7169 -0.0230
vn -0.3589 -0.9334 0.0000
vn -0.2415 0.9688 0.0555
vn 0.9599 0.2680 -0.0825
vn -0.9556 -0.2827 0.0833
vn -0.3357 0.9320 0.1365
vn 0.3584 -0.9238 -0.1347
vn 0.7090 0.7052 0.0000
vn -0.7090 -0.7052 -0.0000
vn -0.6602 0.7414 -0.1202
vn 0.6578 -0.7433 0.1218
vn -0.1580 0.9846 -0.0754
vn 0.2447 -0.9663 0.0792
vn -0.0446 0.9989 -0.0129
vn -0.0495 -0.2244 0.9732
vn -0.1965 0.5147 -0.8345
vn -0.9788 0.0512 0.1985
vn 0.9802 0.0419 0.1936
vn -0.8680 0.4966 0.0000
vn 0.8760 -0.4823 0.0000
vn 0.2038 0.9790 0.0000
vn -0.2148 -0.9767 -0.0000
vn 1.0000 -0.0027 0.0000
vn -1.0000 0.0027 -0.0000
vn 0.8033 0.5953 -0.0201
vn -0.7984 -0.6018 0.0197
vn -0.6327 0.7629 -0.1330
usemtl Material.001
s off
f 1/1/1 3/2/1 17/3/1
f 3/2/2 5/4/2 17/3/2
f 5/4/3 6/5/3 7/6/3 15/7/3
f 6/5/4 8/8/4 9/9/4 7/6/4
f 8/8/5 14/10/5 9/9/5
f 25/11/6 12/12/6 26/13/6
f 12/12/7 22/14/7 24/15/7
f 35/16/8 57/17/8 69/18/8
f 35/19/9 39/20/9 36/21/9
f 36/21/10 39/20/10 40/22/10
f 40/22/11 42/23/11 44/24/11 43/25/11
f 43/25/12 44/24/12 46/26/12 45/27/12
f 45/27/13 46/26/13 64/28/13
f 51/29/14 55/30/14 52/31/14
f 52/31/15 66/32/15 59/33/15
f 24/15/16 23/34/16 70/35/16
f 12/12/17 25/11/17 51/36/17 52/37/17
f 15/7/18 34/38/18 50/39/18 42/40/18
f 21/41/19 16/42/19 58/43/19 63/44/19
f 11/45/20 13/46/20 53/47/20 49/48/20
f 33/49/21 15/7/21 42/50/21 41/51/21
f 14/10/22 8/8/22 45/52/22 64/53/22
f 5/4/23 3/2/23 36/54/23 40/55/23
f 4/56/24 33/49/24 41/51/24 37/57/24
f 24/15/25 22/14/25 59/58/25 66/59/25
f 13/46/26 30/60/26 56/61/26 53/47/26
f 23/34/27 24/15/27 66/59/27 57/62/27
f 6/5/28 5/4/28 40/55/28 43/63/28
f 25/11/29 26/13/29 55/64/29 51/36/29
f 1/1/30 23/34/30 57/62/30 35/65/30
f 26/13/31 14/10/31 64/53/31 55/64/31
f 8/8/32 6/5/32 43/63/32 45/52/32
f 28/66/33 27/67/33 54/68/33 48/69/33
f 22/14/34 12/12/34 52/37/34 59/58/34
f 7/6/35 9/9/35 46/70/35 44/71/35
f 27/67/36 29/72/36 67/73/36 54/68/36
f 16/42/37 18/74/37 60/75/37 58/43/37
f 29/72/38 10/76/38 47/77/38 67/73/38
f 18/74/39 17/78/39 39/79/39 60/75/39
f 10/76/40 28/66/40 48/69/40 47/77/40
f 31/80/41 2/81/41 38/82/41 68/83/41
f 17/78/42 19/84/42 61/85/42 39/79/42
f 9/9/43 11/45/43 49/48/43 46/70/43
f 32/86/44 31/80/44 68/83/44 65/87/44
f 3/2/45 1/1/45 35/65/45 36/54/45
f 19/84/46 20/88/46 62/89/46 61/85/46
f 34/38/47 7/6/47 44/71/47 50/39/47
f 30/60/48 32/90/48 65/91/48 56/61/48
f 2/81/49 4/56/49 37/57/49 38/82/49
f 20/88/50 21/41/50 63/44/50 62/89/50
f 66/32/51 54/92/51 67/93/51 65/94/51
f 27/95/52 24/15/52 32/86/52 29/96/52
f 54/97/53 55/98/53 48/99/53
f 26/13/54 27/100/54 28/101/54
f 69/18/55 66/102/55 71/103/55 72/104/55
f 24/15/56 70/35/56 32/86/56
f 40/22/57 39/20/57 61/105/57
f 39/20/58 35/19/58 69/106/58 60/107/58
f 17/3/59 18/108/59 70/109/59 1/1/59
f 17/3/60 5/4/60 19/110/60
f 52/31/61 55/30/61 54/92/61
f 66/32/62 52/31/62 54/92/62
f 26/13/63 12/12/63 27/95/63
f 24/15/64 27/95/64 12/12/64
f 1/1/65 70/35/65 23/34/65
f 66/102/66 69/18/66 57/17/66
f 42/23/67 37/111/67 41/112/67
f 4/56/68 15/7/68 33/49/68
f 15/7/69 7/6/69 34/38/69
f 44/24/70 42/23/70 50/113/70
f 60/107/71 69/106/71 38/114/71 37/111/71 58/115/71
f 75/116/4 78/117/4 77/118/4 76/119/4
f 70/109/72 18/108/72 16/120/72 4/56/72 2/81/72
f 65/121/73 47/122/73 56/123/73
f 10/124/74 32/90/74 30/60/74
f 65/125/75 68/126/75 73/127/75 74/128/75
f 32/86/76 70/35/76 31/80/76
f 71/103/77 66/102/77 65/125/77 74/128/77
f 74/129/78 73/130/78 77/131/78 78/132/78
f 72/133/79 71/134/79 75/116/79 76/119/79
f 71/135/80 74/129/80 78/132/80 75/136/80
f 73/130/81 72/133/81 76/119/81 77/131/81
f 56/123/82 47/122/82 53/137/82
f 30/60/83 13/46/83 10/124/83
f 69/18/84 68/126/84 38/138/84
f 31/80/85 70/35/85 2/81/85
f 42/23/86 63/139/86 58/115/86 37/111/86
f 61/105/86 62/140/86 63/139/86
f 63/139/86 42/23/86 40/22/86 61/105/86
f 19/110/87 21/141/87 20/142/87
f 19/110/87 5/4/87 15/7/87 21/141/87
f 21/141/87 15/7/87 4/56/87 16/120/87
f 48/99/87 49/143/87 53/137/87 47/122/87
f 11/45/86 28/101/86 10/124/86 13/46/86
f 9/9/88 14/10/88 26/13/88 11/45/88
f 64/28/89 46/26/89 49/143/89 55/98/89
f 65/121/3 67/144/3 47/122/3
f 29/145/11 32/90/11 10/124/11
f 48/99/87 55/98/87 49/143/87
f 28/101/86 11/45/86 26/13/86
f 73/127/90 68/126/90 69/18/90 72/104/90
